<svg width="332" height="143" viewBox="0 0 332 143" xmlns="http://www.w3.org/2000/svg" xmlns:xlink="http://www.w3.org/1999/xlink"><title>asset</title><defs><path id="a" d="M.47.5h9.843v7H.47z"/><path id="c" d="M.156 0H10v7H.156z"/><path id="e" d="M.156.5H10v7H.156z"/><path id="g" d="M.156 0H10v7H.156z"/><path id="i" d="M0 0h30v30H0z"/><path id="k" d="M0 19V0h30v19"/><path id="m" d="M8.312 21.79H.232V.233h21.56v8.112"/><path id="o" d="M.1.1h5.564v5.564H.1z"/><path id="q" d="M.573.1h5.564v5.564H.573z"/><path id="s" d="M.573.573h5.564v5.564H.573z"/><path id="u" d="M.1.573h5.564v5.564H.1z"/></defs><g fill="none" fill-rule="evenodd"><g fill-rule="nonzero"><circle cx="55" cy="55" r="55" fill="#FF7100" transform="translate(0 33)"/><g transform="translate(29.615 66.846)"><path fill="#FFF" d="M.395.238h50.402v41.41H.395"/><ellipse fill="#FF7100" cx="16.335" cy="10.758" rx="3.696" ry="3.619"/><path fill="#FF7100" d="M2.503 32.045l9.47-10.605 6.655 7.027L31.74 14.572l16.772 18.566v5.853H2.502"/></g></g><circle cx="55" cy="55" r="55" fill="#EE534E" fill-rule="nonzero" transform="translate(111 33)"/><path fill="#FFF" fill-rule="nonzero" d="M188 112.538h-42.308V63.462h28.652l13.223 13.663v35.413"/><path stroke="#EE534E" d="M174.444 62.615v13.81h14.383"/><path fill="#EE534E" fill-rule="nonzero" d="M170.253 91.106v-10.72h-7.404v10.72h-5.314l9.002 9.65 1.92-2.058 7.08-7.592"/><circle cx="55" cy="55" r="55" transform="translate(222 33)" fill="#1E98EA" fill-rule="nonzero"/><path d="M256.396 81.617s-9.858 2.305-9.858 13.815c0 5.34 3.38 13.722 13.025 13.722h37.08c6.702 0 11.665-6.77 11.665-12.85 0-8.425-6.066-11.064-9.34-11.608.583-7.268-5.934-12.528-13.883-10.474 0 0-5.466-10.554-17.248-7.747-11.782 2.807-11.44 15.142-11.44 15.142z" fill="#FFF" fill-rule="nonzero"/><path d="M277 93.077v9.308" stroke="#1E98EA" stroke-width="1.1" stroke-linecap="square"/><path fill="#1E98EA" fill-rule="nonzero" d="M277.423 79.538l8.885 12.693h-17.77"/><g><g transform="translate(132.2 11)"><mask id="b" fill="#fff"><use xlink:href="#a"/></mask><path stroke="#F55D54" stroke-width="2" mask="url(#b)" d="M.47.5h9.843v7H.47z"/></g><g transform="translate(152.2 1)"><mask id="d" fill="#fff"><use xlink:href="#c"/></mask><path stroke="#F55D54" stroke-width="2" mask="url(#d)" d="M.156 0H10v7H.156z"/></g><g transform="translate(152.2 11)"><mask id="f" fill="#fff"><use xlink:href="#e"/></mask><path stroke="#F55D54" stroke-width="2" mask="url(#f)" d="M.156.5H10v7H.156z"/></g><g transform="translate(152.2 22)"><mask id="h" fill="#fff"><use xlink:href="#g"/></mask><path stroke="#F55D54" stroke-width="2" mask="url(#h)" d="M.156 0H10v7H.156z"/></g><path d="M142.278 15h9.61m0-10.5h-3.75m3.75 21h-3.75m-.704-21v21" stroke="#F55D54" stroke-linecap="square"/><g stroke="#F55D54"><path d="M115.164.792l8.917.985 6.81 9.206-15.7 18.305-15.77-18.322 6.817-9.14z"/><path d="M130.573 11.01H99.71" stroke-linecap="square"/><path d="M106.25 1.826v8.53l8.94-9.39 8.943 9.39v-8.5m.17 9.242l-9.088 17.925-9.263-17.983"/></g><path fill="#F55D54" fill-rule="nonzero" d="M89.612 15.5h.588v-1h-18v1h.588"/><path d="M68.2 15l3.75-2.5v5L68.2 15zm26 0l-3.75-2.5v5L94.2 15z" stroke="#F55D54"/><path fill="#F55D54" fill-rule="nonzero" d="M81.7 23.412V24h-1V6h1v.588"/><path d="M81.2 2l-2.5 3.75h5L81.2 2zm0 26l-2.5-3.75h5L81.2 28z" stroke="#F55D54"/><g transform="translate(66.2)"><mask id="j" fill="#fff"><use xlink:href="#i"/></mask><path stroke="#F55D54" stroke-width="2" mask="url(#j)" d="M0 0h30v30H0z"/></g><g><path d="M45.01 28.5H33.2V28c0-2.3 1.28-4.4 3.15-5.4-.493-.6-.69-1.4-.69-2.1 0-1.9 1.575-3.5 3.445-3.5 1.87 0 3.444 1.6 3.444 3.5 0 .8-.3 1.5-.69 2.1 1.97 1 3.15 3.1 3.15 5.4v.5zm-10.826-1h9.84c-.195-1.9-1.376-3.6-3.148-4.3l-.787-.3.683-.5c.59-.5.885-1.2.885-1.9 0-1.4-1.08-2.5-2.46-2.5s-2.46 1.1-2.46 2.5c0 .7.295 1.4.886 1.9l.687.5-.786.3c-1.87.7-3.15 2.4-3.346 4.3h.004zm29.026 1H51.4V28c0-2.3 1.28-4.4 3.15-5.4-.493-.6-.69-1.4-.69-2.1 0-1.9 1.575-3.5 3.445-3.5 1.87 0 3.444 1.6 3.444 3.5 0 .8-.3 1.5-.69 2.1 1.97 1 3.15 3.1 3.15 5.4v.5zm-10.826-1h9.84c-.195-1.9-1.376-3.6-3.148-4.3l-.787-.3.683-.5c.59-.5.886-1.2.886-1.9 0-1.4-1.083-2.5-2.46-2.5-1.38 0-2.46 1.1-2.46 2.5 0 .7.294 1.4.885 1.9l.687.5-.787.3c-1.87.7-3.15 2.4-3.346 4.3h.003z" fill="#F55D54" fill-rule="nonzero"/><g transform="translate(33.2 2)"><mask id="l" fill="#fff"><use xlink:href="#k"/></mask><path stroke="#F55D54" stroke-width="2" mask="url(#l)" d="M0 19V0h30v19"/></g><path d="M45.2 22.5h6" stroke="#F55D54" stroke-linecap="square"/><path d="M56.73 9h.47V8h-18v1h.47m15.008 4.5h.522v-1h-16v1h.522" fill="#F55D54" fill-rule="nonzero"/></g><g><path d="M24.11 7.682H11.126M24.11 27.155H11.126m-3.244-16.69v13.91m19.473-13.91v13.91" stroke="#F55D54" stroke-linecap="square"/><g transform="translate(0 -.2)"><mask id="n" fill="#fff"><use xlink:href="#m"/></mask><path stroke="#F55D54" stroke-width="2" mask="url(#n)" d="M8.312 21.79H.232V.233h21.56v8.112"/></g><g transform="translate(5 4.8)"><mask id="p" fill="#fff"><use xlink:href="#o"/></mask><path stroke="#F55D54" stroke-width="2" mask="url(#p)" d="M.1.1h5.564v5.564H.1z"/></g><g transform="translate(24 4.8)"><mask id="r" fill="#fff"><use xlink:href="#q"/></mask><path stroke="#F55D54" stroke-width="2" mask="url(#r)" d="M.573.1h5.564v5.564H.573z"/></g><g transform="translate(24 23.8)"><mask id="t" fill="#fff"><use xlink:href="#s"/></mask><path stroke="#F55D54" stroke-width="2" mask="url(#t)" d="M.573.573h5.564v5.564H.573z"/></g><g transform="translate(5 23.8)"><mask id="v" fill="#fff"><use xlink:href="#u"/></mask><path stroke="#F55D54" stroke-width="2" mask="url(#v)" d="M.1.573h5.564v5.564H.1z"/></g></g></g></g></svg>